<svg xmlns="http://www.w3.org/2000/svg" viewBox="0 0 512 512">
  <circle cx="256" cy="256" r="256" fill="#2563eb"/>
  <path d="M256 128c-35.346 0-64 28.654-64 64v96c0 35.346 28.654 64 64 64s64-28.654 64-64V192c0-35.346-28.654-64-64-64zm32 160c0 17.673-14.327 32-32 32s-32-14.327-32-32V192c0-17.673 14.327-32 32-32s32 14.327 32 32v96z" fill="white"/>
  <path d="M352 224c0 53.019-42.981 96-96 96s-96-42.981-96-96h-32c0 66.219 49.599 120.979 112 130.189V384h32v-29.811c62.401-9.21 112-63.97 112-130.189h-32z" fill="white"/>
</svg> 